<?xml version="1.0" encoding="UTF-8"?>
<svg width="20px" height="17px" viewBox="0 0 20 17" version="1.1" xmlns="http://www.w3.org/2000/svg" xmlns:xlink="http://www.w3.org/1999/xlink">
    <title>Combined Shape</title>
    <g id="Jenn" stroke="none" stroke-width="1" fill="none" fill-rule="evenodd">
        <g id="Desktop---V2-Copy-3" transform="translate(-1056.000000, -879.000000)" fill="#212121">
            <g id="Group-3" transform="translate(739.000000, 731.000000)">
                <g id="Publication" transform="translate(87.000000, 40.000000)">
                    <g id="Group-2" transform="translate(84.000000, 104.000000)">
                        <path d="M158.632191,4.26276824 L165.737232,11.3678092 C165.922911,11.5534885 166.010186,11.8003086 165.999056,12.0434638 C166.007694,12.2831814 165.920281,12.5256516 165.737232,12.7087007 L158.632191,19.8137417 C158.281833,20.1640993 157.713791,20.1640993 157.363434,19.8137417 C157.013076,19.463384 157.013076,18.895342 157.363434,18.5449844 L163.295,12.612 L146.861242,12.612416 C146.385591,12.612416 146,12.226825 146,11.7511744 C146,11.2755238 146.385591,10.8899328 146.861242,10.8899328 L162.721,10.889 L157.363434,5.53152555 C157.013076,5.1811679 157.013076,4.6131259 157.363434,4.26276824 C157.713791,3.91241059 158.281833,3.91241059 158.632191,4.26276824 Z" id="Combined-Shape"></path>
                    </g>
                </g>
            </g>
        </g>
    </g>
</svg>