<?xml version="1.0" encoding="UTF-8"?>
<svg width="61px" height="16px" viewBox="0 0 61 16" version="1.1" xmlns="http://www.w3.org/2000/svg" xmlns:xlink="http://www.w3.org/1999/xlink">
    <title>j.stume</title>
    <g id="Jenn" stroke="none" stroke-width="1" fill="none" fill-rule="evenodd">
        <g id="Desktop---V2-Copy-3" transform="translate(-29.000000, -43.000000)" fill-rule="nonzero">
            <g id="j.stume" transform="translate(29.719500, 43.717500)">
                <path d="M4.097,12.223 C4.097,13.1806667 3.86466667,13.9003333 3.4,14.382 C2.93533333,14.8636667 2.18166667,15.1045 1.139,15.1045 C0.68,15.1045 0.37825,15.0634167 0.23375,14.98125 C0.08925,14.8990833 0.017,14.858 0.017,14.858 L0,13.2005 L0.6885,13.141 C1.03983333,13.09 1.2835,12.9908333 1.4195,12.8435 C1.5555,12.6961667 1.6235,12.4808333 1.6235,12.1975 L1.6235,3.4935 L4.097,3.4935 L4.097,12.223 Z M4.1225,0 L4.1225,2.2355 L1.5895,2.2355 L1.5895,0 L4.1225,0 Z" id="Shape" fill="#212121"></path>
                <polygon id="Path" fill="#005F9E" points="6.02490625 12.2825 6.02490625 9.5795 8.74490625 9.5795 8.74490625 12.2825"></polygon>
                <path d="M14.3070937,12.4525 C13.6950937,12.4525 13.1057604,12.3519167 12.5390937,12.15075 C11.9724271,11.9495833 11.4935937,11.63225 11.1025937,11.19875 C10.7115937,10.76525 10.4622604,10.2028333 10.3545937,9.5115 L12.5050937,9.5115 C12.5787604,9.82316667 12.7133437,10.0696667 12.9088437,10.251 C13.1043437,10.4323333 13.3267604,10.56125 13.5760937,10.63775 C13.8254271,10.71425 14.0634271,10.7525 14.2900937,10.7525 C14.7660937,10.7525 15.1500104,10.6774167 15.4418437,10.52725 C15.7336771,10.3770833 15.8795937,10.1461667 15.8795937,9.8345 C15.8795937,9.5965 15.7931771,9.40666667 15.6203437,9.265 C15.4475104,9.12333333 15.1627604,9.01566667 14.7660937,8.942 L13.2190937,8.619 C12.4427604,8.45466667 11.8194271,8.17558333 11.3490937,7.78175 C10.8787604,7.38791667 10.6379271,6.82833333 10.6265937,6.103 C10.6265937,5.576 10.7668437,5.10283333 11.0473437,4.6835 C11.3278437,4.26416667 11.7429271,3.93266667 12.2925937,3.689 C12.8422604,3.44533333 13.5165937,3.3235 14.3155937,3.3235 C15.3979271,3.3235 16.2635104,3.5615 16.9123437,4.0375 C17.5611771,4.5135 17.8912604,5.185 17.9025937,6.052 L15.8285937,6.052 C15.7662604,5.712 15.5976771,5.44991667 15.3228437,5.26575 C15.0480104,5.08158333 14.7037604,4.9895 14.2900937,4.9895 C13.8594271,4.9895 13.5052604,5.066 13.2275937,5.219 C12.9499271,5.372 12.8110937,5.60433333 12.8110937,5.916 C12.8110937,6.14833333 12.9244271,6.33108333 13.1510937,6.46425 C13.3777604,6.59741667 13.7290937,6.71216667 14.2050937,6.8085 L15.6330937,7.1315 C16.1260937,7.2505 16.5270104,7.41341667 16.8358437,7.62025 C17.1446771,7.82708333 17.3840937,8.05233333 17.5540937,8.296 C17.7240937,8.53966667 17.8416771,8.78475 17.9068437,9.03125 C17.9720104,9.27775 18.0045937,9.50016667 18.0045937,9.6985 C18.0045937,10.2821667 17.8487604,10.7794167 17.5370937,11.19025 C17.2254271,11.6010833 16.7919271,11.9141667 16.2365937,12.1295 C15.6812604,12.3448333 15.0380937,12.4525 14.3070937,12.4525 Z" id="Path" fill="#212121"></path>
                <path d="M25.0951875,5.219 L23.1401875,5.219 L23.1571875,9.9025 C23.1571875,10.1178333 23.1841042,10.2779167 23.2379375,10.38275 C23.2917708,10.4875833 23.3767708,10.5555833 23.4929375,10.58675 C23.6091042,10.6179167 23.7578542,10.6335 23.9391875,10.6335 L25.1206875,10.6335 L25.1206875,12.1635 C25.0073542,12.2145 24.8302708,12.2626667 24.5894375,12.308 C24.3486042,12.3533333 24.0128542,12.376 23.5821875,12.376 C22.8115208,12.376 22.2151042,12.2768333 21.7929375,12.0785 C21.3707708,11.8801667 21.0775208,11.6025 20.9131875,11.2455 C20.7488542,10.8885 20.6666875,10.4748333 20.6666875,10.0045 L20.6666875,5.219 L19.2386875,5.219 L19.2386875,3.4935 L20.7516875,3.4935 L21.3721875,0.8415 L23.1401875,0.8415 L23.1401875,3.485 L25.0951875,3.485 L25.0951875,5.219 Z" id="Path" fill="#212121"></path>
                <path d="M30.16225,12.4525 C29.75425,12.4525 29.3533333,12.3901667 28.9595,12.2655 C28.5656667,12.1408333 28.20725,11.9566667 27.88425,11.713 C27.56125,11.4693333 27.302,11.169 27.1065,10.812 C26.911,10.455 26.81325,10.0413333 26.81325,9.571 L26.81325,3.4935 L29.29525,3.4935 L29.29525,9.2565 C29.29525,9.6645 29.4284167,9.99883333 29.69475,10.2595 C29.9610833,10.5201667 30.3520833,10.6505 30.86775,10.6505 C31.3550833,10.6505 31.7418333,10.5244167 32.028,10.27225 C32.3141667,10.0200833 32.45725,9.66733333 32.45725,9.214 L32.45725,3.4935 L34.91375,3.4935 L34.91375,12.2825 L33.04375,12.2825 L32.75475,10.54 C32.65275,11.0556667 32.4615,11.4509167 32.181,11.72575 C31.9005,12.0005833 31.5803333,12.1904167 31.2205,12.29525 C30.8606667,12.4000833 30.5079167,12.4525 30.16225,12.4525 Z" id="Path" fill="#212121"></path>
                <path d="M36.9309063,12.2825 L36.9309063,3.4935 L39.3619063,3.4935 L39.3619063,4.7345 C39.6282396,4.34916667 39.9866563,4.01766667 40.4371563,3.74 C40.8876563,3.46233333 41.4557396,3.3235 42.1414063,3.3235 C42.4417396,3.3235 42.7477396,3.37733333 43.0594063,3.485 C43.3710729,3.59266667 43.6643229,3.74991667 43.9391563,3.95675 C44.2139896,4.16358333 44.4364063,4.42283333 44.6064063,4.7345 C44.8897396,4.33216667 45.2623229,3.99641667 45.7241563,3.72725 C46.1859896,3.45808333 46.7002396,3.3235 47.2669063,3.3235 C47.5955729,3.3235 47.9284896,3.37733333 48.2656563,3.485 C48.6028229,3.59266667 48.9130729,3.76833333 49.1964063,4.012 C49.4797396,4.25566667 49.7078229,4.58008333 49.8806563,4.98525 C50.0534896,5.39041667 50.1399063,5.8905 50.1399063,6.4855 L50.1399063,12.2825 L47.6579063,12.2825 L47.6579063,6.7915 C47.6579063,6.44016667 47.5884896,6.15825 47.4496563,5.94575 C47.3108229,5.73325 47.1351563,5.58025 46.9226563,5.48675 C46.7101563,5.39325 46.4849063,5.3465 46.2469063,5.3465 C46.0259063,5.3465 45.8020729,5.39041667 45.5754063,5.47825 C45.3487396,5.56608333 45.1560729,5.70633333 44.9974063,5.899 C44.8387396,6.09166667 44.7594063,6.34383333 44.7594063,6.6555 L44.7594063,12.2825 L42.2859063,12.2825 L42.2859063,6.5705 C42.2859063,6.30416667 42.2150729,6.08033333 42.0734063,5.899 C41.9317396,5.71766667 41.7546563,5.58025 41.5421563,5.48675 C41.3296563,5.39325 41.1129063,5.3465 40.8919063,5.3465 C40.6652396,5.3465 40.4385729,5.39325 40.2119063,5.48675 C39.9852396,5.58025 39.7954063,5.72475 39.6424063,5.92025 C39.4894063,6.11575 39.4129063,6.36083333 39.4129063,6.6555 L39.4129063,12.2825 L36.9309063,12.2825 Z" id="Path" fill="#212121"></path>
                <path d="M54.1949375,8.4575 C54.1892708,8.90516667 54.2601042,9.29475 54.4074375,9.62625 C54.5547708,9.95775 54.7686875,10.21275 55.0491875,10.39125 C55.3296875,10.56975 55.6682708,10.659 56.0649375,10.659 C56.4899375,10.659 56.8625208,10.5683333 57.1826875,10.387 C57.5028542,10.2056667 57.7252708,9.90816667 57.8499375,9.4945 L60.0854375,9.4945 C59.9891042,10.1178333 59.7411875,10.6505 59.3416875,11.0925 C58.9421875,11.5345 58.4591042,11.8716667 57.8924375,12.104 C57.3257708,12.3363333 56.7364375,12.4525 56.1244375,12.4525 C55.2574375,12.4525 54.4938542,12.26975 53.8336875,11.90425 C53.1735208,11.53875 52.6592708,11.0216667 52.2909375,10.353 C51.9226042,9.68433333 51.7384375,8.89666667 51.7384375,7.99 C51.7384375,7.11166667 51.9056042,6.31975 52.2399375,5.61425 C52.5742708,4.90875 53.0601875,4.35058333 53.6976875,3.93975 C54.3351875,3.52891667 55.1016042,3.3235 55.9969375,3.3235 C56.8922708,3.3235 57.6445208,3.51191667 58.2536875,3.88875 C58.8628542,4.26558333 59.3218542,4.78975 59.6306875,5.46125 C59.9395208,6.13275 60.0939375,6.90766667 60.0939375,7.786 L60.0939375,8.4575 L54.1949375,8.4575 Z M54.1864375,6.9785 L57.7734375,6.9785 C57.7734375,6.62716667 57.7082708,6.30416667 57.5779375,6.0095 C57.4476042,5.71483333 57.2506875,5.4825 56.9871875,5.3125 C56.7236875,5.1425 56.3936042,5.0575 55.9969375,5.0575 C55.6116042,5.0575 55.2843542,5.14958333 55.0151875,5.33375 C54.7460208,5.51791667 54.5406042,5.75733333 54.3989375,6.052 C54.2572708,6.34666667 54.1864375,6.6555 54.1864375,6.9785 Z" id="Shape" fill="#212121"></path>
            </g>
        </g>
    </g>
</svg>